<?xml version="1.0" encoding="utf-8"?>

<svg version="1.1" id="Icons" xmlns="http://www.w3.org/2000/svg" xmlns:xlink="http://www.w3.org/1999/xlink" x="0px" y="0px"
	 viewBox="0 0 32 32" style="enable-background:new 0 0 32 32;" xml:space="preserve">
<g>
	<path d="M16,17c-0.6,0-1,0.4-1,1v1c0,0.6,0.4,1,1,1s1-0.4,1-1v-1C17,17.4,16.6,17,16,17z"/>
	<circle cx="16" cy="14" r="1"/>
	<path d="M16,2C8.3,2,2,8.3,2,16s6.3,14,14,14s14-6.3,14-14S23.7,2,16,2z M11,22H9c-0.6,0-1-0.4-1-1s0.4-1,1-1v-5H8
		c-0.6,0-1-0.4-1-1s0.4-1,1-1h1v-1c0-0.6,0.4-1,1-1s1,0.4,1,1v8c0.6,0,1,0.4,1,1S11.6,22,11,22z M19,18v1c0,1.7-1.3,3-3,3
		s-3-1.3-3-3v-1c0-0.8,0.3-1.5,0.8-2c-0.5-0.5-0.8-1.2-0.8-2c0-1.7,1.3-3,3-3s3,1.3,3,3c0,0.8-0.3,1.5-0.8,2
		C18.7,16.5,19,17.2,19,18z M25,18h-1v1c0,0.6-0.4,1-1,1s-1-0.4-1-1v-1h-1c-0.6,0-1-0.4-1-1s0.4-1,1-1h1v-1c0-0.6,0.4-1,1-1
		s1,0.4,1,1v1h1c0.6,0,1,0.4,1,1S25.6,18,25,18z"/>
</g>
</svg>
